<svg width="280" height="140" viewBox="0 0 280 140" xmlns="http://www.w3.org/2000/svg"><g transform="translate(110, 15)"><circle cx="30" cy="30" r="28" fill="#2C5F7C" opacity="0.08"/><g transform="translate(10, 25)"><path d="M 0 5 L 20 0 L 20 3 L 12 5 L 20 7 L 20 10 Z" fill="#D4AF37"/></g><path d="M 33 30 Q 38 27, 43 30" stroke="#2C5F7C" stroke-width="1.5" fill="none" stroke-dasharray="2,2" opacity="0.3"/><g transform="translate(43, 25)"><rect x="0" y="-6" width="3" height="12" rx="1.5" fill="#2C5F7C"/><rect x="-4.5" y="-1.5" width="12" height="3" rx="1.5" fill="#2C5F7C"/><path d="M 1.5 8 Q 0 7, 0 5.5 Q 0 4.5, 0.8 4.5 Q 1.5 4.5, 1.5 5.5 Q 1.5 4.5, 2.2 4.5 Q 3 4.5, 3 5.5 Q 3 7, 1.5 8" fill="#D4AF37"/></g></g><g><text x="140" y="92" font-family="Arial, sans-serif" font-size="22" font-weight="700" fill="#2C5F7C" text-anchor="middle" letter-spacing="0.5">Seoul Care Concierge</text><text x="140" y="110" font-family="Arial, sans-serif" font-size="11" fill="#2C3E50" opacity="0.6" text-anchor="middle" letter-spacing="0.5">Medical &amp; Beauty Tourism</text><path d="M 60 120 Q 140 117, 220 120" stroke="#D4AF37" stroke-width="1.5" fill="none" opacity="0.4"/></g></svg>