<svg width="300" height="120" viewBox="0 0 300 120" xmlns="http://www.w3.org/2000/svg"><g transform="translate(40, 35)"><path d="M 0 10 L 25 0 L 25 5 L 15 10 L 25 15 L 25 20 Z" fill="#D4AF37" opacity="0.9"/><circle cx="28" cy="10" r="1.5" fill="#D4AF37" opacity="0.5"/><circle cx="33" cy="10" r="1" fill="#D4AF37" opacity="0.3"/></g><path d="M 70 45 Q 120 35, 170 45" stroke="#2C5F7C" stroke-width="2" fill="none" stroke-dasharray="4,4" opacity="0.4"/><g transform="translate(195, 30)"><circle cx="15" cy="15" r="20" fill="#2C5F7C" opacity="0.1"/><rect x="12" y="5" width="6" height="20" rx="3" fill="#2C5F7C"/><rect x="5" y="12" width="20" height="6" rx="3" fill="#2C5F7C"/><path d="M 15 24 Q 12 22, 12 20 Q 12 18, 13.5 18 Q 15 18, 15 19.5 Q 15 18, 16.5 18 Q 18 18, 18 20 Q 18 22, 15 24" fill="#D4AF37" opacity="0.8"/></g><text x="150" y="80" font-family="Arial, sans-serif" font-size="18" font-weight="600" fill="#2C3E50" text-anchor="middle">Seoul Care Concierge</text><text x="150" y="98" font-family="Arial, sans-serif" font-size="10" fill="#2C5F7C" text-anchor="middle" opacity="0.7">Medical &amp; Beauty Tourism</text></svg>