<svg width="120" height="120" viewBox="0 0 120 120" xmlns="http://www.w3.org/2000/svg"><rect width="120" height="120" rx="20" fill="#2C5F7C" opacity="0.05"/><circle cx="60" cy="60" r="45" fill="#2C5F7C" opacity="0.1"/><g transform="translate(25, 50)"><path d="M 0 5 L 20 0 L 20 3 L 12 5 L 20 7 L 20 10 Z" fill="#D4AF37"/></g><path d="M 48 55 Q 60 50, 72 55" stroke="#2C5F7C" stroke-width="2" fill="none" stroke-dasharray="3,3" opacity="0.3"/><g transform="translate(72, 50)"><rect x="0" y="-8" width="4" height="16" rx="2" fill="#2C5F7C"/><rect x="-6" y="-2" width="16" height="4" rx="2" fill="#2C5F7C"/><path d="M 2 10 Q 0 9, 0 7.5 Q 0 6.5, 1 6.5 Q 2 6.5, 2 7.5 Q 2 6.5, 3 6.5 Q 4 6.5, 4 7.5 Q 4 9, 2 10" fill="#D4AF37"/></g><text x="60" y="95" font-family="Arial, sans-serif" font-size="16" font-weight="700" fill="#2C5F7C" text-anchor="middle" letter-spacing="2">SCC</text></svg>